<?xml version="1.0" standalone="no"?>
<!DOCTYPE svg PUBLIC "-//W3C//DTD SVG 20010904//EN"
 "http://www.w3.org/TR/2001/REC-SVG-20010904/DTD/svg10.dtd">
<svg version="1.0" xmlns="http://www.w3.org/2000/svg"
 width="300.000000pt" height="300.000000pt" viewBox="0 0 300.000000 300.000000"
 preserveAspectRatio="xMidYMid meet">
<metadata>
Created by potrace 1.14, written by Peter Selinger 2001-2017
</metadata>
<g transform="translate(0.000000,300.000000) scale(0.100000,-0.100000)"
fill="#000000" stroke="none">
<path d="M1474 2061 c-10 -25 -14 -83 -14 -225 -1 -105 -5 -222 -11 -261 -6
-38 -14 -116 -18 -173 -7 -99 -19 -131 -43 -116 -4 3 -8 1 -8 -4 0 -6 -16 -6
-42 0 -50 11 -277 6 -297 -7 -11 -6 -13 -4 -8 9 4 11 3 15 -4 10 -6 -4 -16 0
-21 7 -8 11 -9 10 -4 -3 3 -12 0 -18 -9 -18 -9 0 -16 10 -16 23 -1 18 -3 16
-9 -8 -4 -16 -8 -25 -9 -20 0 6 -16 9 -36 7 -19 -2 -35 0 -35 6 0 6 -13 7 -36
2 -20 -5 -51 -6 -69 -3 -28 5 -35 1 -47 -21 l-14 -27 -1 37 c-1 22 2 32 7 24
9 -14 30 -5 29 13 0 8 -2 8 -6 -1 -4 -10 -8 -10 -19 -1 -11 9 -15 8 -20 -4 -3
-9 -3 -21 1 -27 3 -5 -1 -10 -10 -10 -9 0 -13 4 -10 10 3 5 -13 9 -39 8 -25 0
-43 -4 -40 -9 3 -5 0 -9 -5 -9 -6 0 -11 5 -11 10 0 6 -7 10 -15 10 -8 0 -15
-5 -15 -12 0 -9 -3 -9 -12 0 -17 17 -33 15 -19 -2 10 -12 3 -14 -46 -11 -32 2
-64 4 -71 4 -7 1 -10 5 -7 11 3 5 19 7 35 3 20 -3 30 -1 30 6 0 7 -5 9 -11 5
-6 -3 -14 -2 -18 4 -5 8 -15 7 -34 -3 -15 -8 -25 -10 -22 -5 4 6 -4 10 -16 10
-12 0 -20 -3 -16 -6 9 -9 -18 -34 -36 -34 -9 0 -18 -6 -21 -12 -3 -7 -3 -3 0
10 3 12 1 22 -5 22 -6 0 -12 39 -14 98 -1 53 -4 -9 -5 -138 -1 -129 -4 -265
-7 -302 l-4 -67 32 -5 c18 -3 81 -7 141 -10 59 -3 110 -6 111 -8 1 -2 7 -63
12 -137 6 -87 14 -136 21 -139 7 -2 9 -8 6 -13 -3 -6 1 -18 9 -27 8 -9 20 -46
26 -82 24 -126 61 -160 174 -160 73 0 81 2 107 28 26 27 60 113 60 154 0 17 6
18 68 12 89 -8 86 -6 100 -52 7 -22 25 -54 41 -71 28 -30 32 -31 114 -31 85 0
85 0 116 35 17 20 34 47 37 61 6 23 11 25 37 20 16 -3 51 -6 78 -6 48 0 48 0
54 -37 14 -80 37 -132 72 -163 19 -18 44 -30 57 -29 11 1 29 -1 39 -6 10 -4
40 -5 68 -3 89 9 144 91 142 212 -1 34 -2 81 -2 106 -1 46 -1 46 -46 58 -55
15 -59 32 -6 32 42 0 63 16 40 31 -8 5 -27 9 -44 9 -38 0 -48 8 -68 45 -38 75
-123 117 -239 119 l-78 1 0 40 c0 220 23 949 31 982 19 72 40 83 160 86 57 1
176 0 264 -3 l160 -4 0 77 c-1 46 -6 82 -13 89 -9 9 -99 12 -338 12 l-326 1
-14 -34z m-607 -787 c-3 -3 -12 -4 -19 -1 -8 3 -5 6 6 6 11 1 17 -2 13 -5z
m-100 -529 c20 -8 33 -18 30 -22 -4 -3 -13 0 -22 7 -8 7 -28 10 -45 8 -24 -4
-27 -2 -19 9 14 16 12 16 56 -2z m1013 -11 c24 -14 24 -14 -13 -8 -31 5 -45 2
-68 -15 -28 -21 -29 -21 -17 -2 12 19 43 39 63 40 6 0 21 -6 35 -15z m-640
-33 c0 -23 -14 -41 -31 -41 -14 0 -19 7 -19 25 0 20 5 25 25 25 14 0 25 -4 25
-9z m117 -5 c1 -1 0 -12 -4 -24 -5 -19 -12 -22 -53 -22 -50 0 -61 9 -52 44 4
16 11 17 56 11 28 -3 52 -7 53 -9z m81 -23 c-3 -24 -8 -28 -35 -29 -33 -1 -47
14 -37 41 4 9 19 15 41 15 32 0 34 -2 31 -27z m-560 -53 c37 -73 26 -184 -23
-230 -23 -22 -25 -22 -50 -6 -84 55 -60 297 28 284 14 -2 30 -18 45 -48z m990
8 c52 -56 62 -182 21 -265 -22 -44 -27 -48 -59 -48 -32 0 -37 4 -59 48 -27 54
-32 158 -11 212 15 38 49 75 70 75 9 0 26 -10 38 -22z m-378 -98 c0 -29 0 -29
60 -28 33 1 63 -2 67 -5 9 -10 -88 -8 -208 3 -93 9 -212 17 -277 19 -13 1 -21
5 -18 10 3 4 24 6 46 4 23 -2 48 1 56 8 8 6 21 8 31 3 10 -4 41 -6 69 -5 29 2
54 -1 57 -6 3 -5 22 -7 41 -5 30 4 36 8 36 28 0 22 3 23 20 14 13 -7 20 -21
20 -40z m160 -34 c0 -3 -4 -8 -10 -11 -5 -3 -10 -1 -10 4 0 6 5 11 10 11 6 0
10 -2 10 -4z"/>
<path d="M721 634 c0 -11 3 -14 6 -6 3 7 2 16 -1 19 -3 4 -6 -2 -5 -13z"/>
<path d="M721 542 c-33 -3 -33 -4 -28 -44 6 -43 21 -60 44 -51 16 6 26 41 21
74 -3 21 -8 24 -37 21z"/>
<path d="M660 520 c0 -5 5 -10 10 -10 6 0 10 5 10 10 0 6 -4 10 -10 10 -5 0
-10 -4 -10 -10z"/>
<path d="M770 520 c0 -5 5 -10 10 -10 6 0 10 5 10 10 0 6 -4 10 -10 10 -5 0
-10 -4 -10 -10z"/>
<path d="M681 444 c0 -11 3 -14 6 -6 3 7 2 16 -1 19 -3 4 -6 -2 -5 -13z"/>
<path d="M761 444 c0 -11 3 -14 6 -6 3 7 2 16 -1 19 -3 4 -6 -2 -5 -13z"/>
<path d="M721 404 c0 -11 3 -14 6 -6 3 7 2 16 -1 19 -3 4 -6 -2 -5 -13z"/>
<path d="M1720 604 c0 -8 5 -12 10 -9 6 3 10 10 10 16 0 5 -4 9 -10 9 -5 0
-10 -7 -10 -16z"/>
<path d="M1681 564 c0 -11 3 -14 6 -6 3 7 2 16 -1 19 -3 4 -6 -2 -5 -13z"/>
<path d="M1771 564 c0 -11 3 -14 6 -6 3 7 2 16 -1 19 -3 4 -6 -2 -5 -13z"/>
<path d="M1723 503 c-30 -4 -33 -7 -33 -39 0 -45 16 -74 40 -74 11 0 24 9 30
19 12 23 14 102 3 99 -5 0 -23 -3 -40 -5z"/>
<path d="M1661 474 c0 -11 3 -14 6 -6 3 7 2 16 -1 19 -3 4 -6 -2 -5 -13z"/>
<path d="M1791 474 c0 -11 3 -14 6 -6 3 7 2 16 -1 19 -3 4 -6 -2 -5 -13z"/>
<path d="M1676 391 c-4 -7 -5 -15 -2 -18 9 -9 19 4 14 18 -4 11 -6 11 -12 0z"/>
<path d="M1770 384 c0 -8 5 -12 10 -9 6 4 8 11 5 16 -9 14 -15 11 -15 -7z"/>
<path d="M1720 345 c0 -8 5 -15 10 -15 6 0 10 7 10 15 0 8 -4 15 -10 15 -5 0
-10 -7 -10 -15z"/>
<path d="M1731 1829 c-35 -4 -68 -12 -74 -18 -11 -11 -26 -182 -27 -307 l0
-91 73 -21 c39 -12 104 -29 144 -39 58 -13 73 -21 76 -37 2 -12 4 15 4 59 0
44 -2 61 -4 38 -2 -24 -5 -43 -6 -43 -10 0 -229 61 -251 69 l-29 12 7 117 c12
216 15 231 45 240 14 4 73 7 131 7 133 0 150 -9 173 -92 16 -60 44 -242 49
-325 4 -69 -16 -59 -24 12 -8 74 -12 80 -47 80 l-28 0 1 -114 c1 -118 12 -154
38 -128 18 18 27 15 38 -13 11 -30 26 -32 40 -6 14 26 -4 75 -25 67 -8 -3 -17
0 -21 6 -4 7 7 8 36 3 l42 -7 -7 58 c-26 237 -50 370 -77 429 -7 16 -24 28
-47 34 -58 15 -161 19 -230 10z"/>
<path d="M2080 1810 c-13 -8 -12 -22 3 -113 24 -143 83 -378 99 -393 13 -13
174 -28 436 -40 l142 -7 -1 29 c-1 17 -3 22 -6 12 -5 -22 -62 -23 -278 -8
-271 19 -265 18 -282 58 -19 47 -82 321 -90 393 -5 47 -3 57 12 62 31 13 307
-18 394 -43 19 -5 30 -6 25 -1 -14 14 -147 39 -274 50 -140 13 -161 13 -180 1z"/>
<path d="M2550 1746 c0 -2 8 -10 18 -17 15 -13 16 -12 3 4 -13 16 -21 21 -21
13z"/>
<path d="M2741 1334 c0 -11 3 -14 6 -6 3 7 2 16 -1 19 -3 4 -6 -2 -5 -13z"/>
<path d="M1627 1334 c-13 -14 -8 -72 8 -78 8 -3 37 -8 64 -12 46 -6 49 -5 55
19 7 30 0 53 -18 60 -28 11 -101 18 -109 11z"/>
<path d="M780 1311 c0 -5 7 -12 16 -15 14 -5 15 -4 4 9 -14 17 -20 19 -20 6z"/>
<path d="M648 1303 c7 -3 16 -2 19 1 4 3 -2 6 -13 5 -11 0 -14 -3 -6 -6z"/>
<path d="M908 1293 c7 -3 16 -2 19 1 4 3 -2 6 -13 5 -11 0 -14 -3 -6 -6z"/>
<path d="M320 1280 c0 -5 4 -10 9 -10 6 0 13 5 16 10 3 6 -1 10 -9 10 -9 0
-16 -4 -16 -10z"/>
<path d="M490 1280 c0 -6 7 -10 15 -10 8 0 15 2 15 4 0 2 -7 6 -15 10 -8 3
-15 1 -15 -4z"/>
<path d="M2108 922 c-3 -10 -6 -61 -7 -113 l-2 -95 33 -16 c18 -8 48 -19 66
-22 47 -11 42 -36 -7 -36 -24 0 -41 -5 -44 -14 -6 -16 13 -26 48 -26 13 0 26
-4 30 -9 5 -9 -4 -13 -56 -25 -24 -5 -26 -10 -25 -51 1 -25 -2 -45 -6 -45 -5
0 -8 -4 -8 -10 0 -5 6 -7 13 -4 8 3 18 -18 31 -66 13 -50 27 -80 51 -105 32
-35 33 -35 120 -35 87 0 88 0 120 34 22 23 38 56 50 99 l17 64 100 12 c55 6
108 15 118 21 22 12 46 70 55 138 6 49 6 52 -15 52 -17 0 -21 4 -17 20 5 18 0
20 -44 20 -56 0 -57 3 -38 88 10 51 39 87 74 94 14 2 19 10 17 23 -5 28 -7 29
-35 10 -13 -8 -33 -18 -43 -20 -11 -2 -37 -9 -59 -14 -83 -21 -227 -8 -359 33
-29 9 -54 12 -60 6 -6 -4 -30 -5 -56 0 -60 12 -57 12 -62 -8z m107 -27 c22 -3
61 -13 86 -21 41 -13 49 -21 67 -62 11 -26 22 -63 26 -83 l6 -36 -52 -6 c-85
-11 -135 -8 -178 9 l-40 16 0 92 c0 97 3 109 29 102 9 -2 34 -7 56 -11z"/>
</g>
</svg>
